<svg aria-hidden="true" style="position: absolute; width: 0px; height: 0px; overflow-x: hidden; overflow-y: hidden;" xmlns="http://www.w3.org/2000/svg"><defs><symbol id="icon-linkedin" viewBox="0 0 32 32"><path d="M31.992 32H32V20.262c0-5.74-1.236-10.164-7.948-10.164-3.227 0-5.392 1.77-6.276 3.448h-.093v-2.913H11.32V32h6.626V21.42c0-2.785.528-5.48 3.977-5.48 3.4 0 3.45 3.18 3.45 5.658v10.4h6.62zM.528 10.636h6.635V32H.528V10.636zM3.843 0C1.723 0 0 1.72 0 3.843s1.72 3.88 3.843 3.88c2.12 0 3.843-1.758 3.843-3.88A3.846 3.846 0 0 0 3.843 0z"/></symbol><symbol id="icon-logo" viewBox="0 0 57 32"><path d="m20.267 3.733 3.738 3.538-6.938-.003v17.166H35.2V17.87l3.733 3.533V3.733H20.266zm14.77 13.722L24.438 7.423h10.596v10.032zm-3.29 4.468h-11.81V10.378h.834v10.764h10.976v.782zm-9.022 4.797h.365l-.635 1.198v.698h-.33v-.698l-.638-1.198h.366l.436.898.435-.898zm.548 1.895.154-.44h.734l.156.44h.344l-.717-1.896h-.296l-.716 1.895h.343zm.52-1.493.276.786h-.55l.275-.786zm1.738.74a.43.43 0 0 0-.07.242c0 .16.055.29.167.39s.263.147.45.147.35-.05.485-.15l.107.125h.366l-.28-.33a.95.95 0 0 0 .165-.573h-.274a.758.758 0 0 1-.08.348l-.365-.432.13-.094c.09-.066.157-.132.197-.198s.06-.14.06-.22c0-.12-.044-.22-.133-.3s-.2-.122-.34-.122c-.152 0-.273.043-.364.13s-.135.203-.135.352c0 .06.014.124.043.19s.08.143.155.236a1.12 1.12 0 0 0-.283.262zm.856.42a.485.485 0 0 1-.3.107c-.094 0-.17-.028-.226-.083s-.085-.126-.085-.214c0-.102.052-.192.156-.27l.04-.03.415.488zm-.34-.84c-.09-.11-.134-.202-.134-.275 0-.063.018-.116.055-.158s.085-.064.147-.064c.057 0 .105.018.142.053s.056.076.056.125a.235.235 0 0 1-.08.184l-.04.032-.146.1zm3.086 1.03c-.13.113-.303.17-.52.17a.7.7 0 0 1-.666-.414 1.1 1.1 0 0 1-.098-.46v-.177c0-.178.032-.335.095-.472a.713.713 0 0 1 .683-.426c.21 0 .378.057.505.17s.203.275.224.483h-.328c-.016-.136-.056-.234-.12-.294s-.157-.09-.28-.09c-.143 0-.253.053-.33.158s-.116.257-.118.46v.168c0 .205.036.36.11.47s.18.16.322.16c.13 0 .227-.03.292-.087s.106-.156.124-.29h.328a.69.69 0 0 1-.224.473zm1.936-.266c.064-.14.096-.304.096-.49v-.105a1.15 1.15 0 0 0-.1-.485.726.726 0 0 0-.686-.432.757.757 0 0 0-.41.113c-.12.075-.212.183-.278.324s-.098.305-.098.49v.107c0 .18.034.342.1.48s.158.246.278.322a.764.764 0 0 0 .41.11c.156 0 .294-.036.412-.11s.212-.184.276-.324zm-.352-1.07c.08.11.12.272.12.482v.1c0 .213-.04.375-.12.486s-.19.167-.335.167c-.143 0-.256-.056-.338-.17s-.12-.275-.12-.483v-.11c0-.203.042-.36.12-.472s.193-.168.336-.168c.146 0 .258.056.337.168z"/></symbol><symbol id="icon-logo1" viewBox="0 0 57 32"><path d="M26.727 3.165c.123 0 .255.01.386.022l.04.003c.635.045 1.267.14 1.888.285V1.948a11.38 11.38 0 0 0-1.95-.31 15.84 15.84 0 0 0-.787-.04h-.228a15.9 15.9 0 0 0-3.913.505 15.868 15.868 0 0 0-4.15 1.688v15.146a16.858 16.858 0 0 1 3.956-1.542 17.273 17.273 0 0 1 3.322-.51h.045c.188-.01.375-.015.568-.016v-1.55a18.28 18.28 0 0 0-4.317.573c-.522.137-1.027.283-1.5.446l-.54.183V4.71l.23-.11a15.078 15.078 0 0 1 5.61-1.432.4.4 0 0 1 .05 0c.214-.01.43-.016.64-.016h.244c.112.003.224.005.336.012h.073zm2.688 1.56c.34.027.69.04 1.044.04a16.75 16.75 0 0 0 4.113-.53 16.958 16.958 0 0 0 3.956-1.542v14.875a15.88 15.88 0 0 1-4.154 1.688 15.948 15.948 0 0 1-3.913.503c-1 .007-1.997-.11-2.968-.35V4.437c.23.053.465.102.706.142.395.066.81.115 1.215.145zm7.57.116-.54.183c-.497.167-.997.316-1.5.45a18.23 18.23 0 0 1-4.483.574c-.352 0-.676-.01-.99-.03l-.43-.028v12.147l.37.033c.344.03.697.045 1.053.045a14.364 14.364 0 0 0 3.53-.457c.95-.238 1.875-.57 2.76-.99l.23-.112V4.843zM19.06 24.114a.788.788 0 0 0-.6-.243.895.895 0 0 0-.347.065.778.778 0 0 0-.444.45.893.893 0 0 0-.063.334v2.022a.94.94 0 0 0 .08.415.718.718 0 0 0 .48.415c.098.028.2.042.302.042a.855.855 0 0 0 .837-.85v-.227h-.53v.18a.458.458 0 0 1-.03.18.315.315 0 0 1-.077.114.38.38 0 0 1-.222.078.266.266 0 0 1-.25-.11.48.48 0 0 1-.07-.27V24.82a.643.643 0 0 1 .066-.3.267.267 0 0 1 .26-.122.28.28 0 0 1 .235.113c.058.08.09.174.087.272v.175h.524v-.206a.953.953 0 0 0-.24-.638zm3.142-.023a.92.92 0 0 0-1.197 0 .82.82 0 0 0-.205.283.96.96 0 0 0-.077.392v1.94a.932.932 0 0 0 .077.398.79.79 0 0 0 .205.27.837.837 0 0 0 .28.172.897.897 0 0 0 .917-.17.85.85 0 0 0 .2-.272.934.934 0 0 0 .077-.397v-1.94a.943.943 0 0 0-.078-.393.867.867 0 0 0-.2-.283zm-.247 2.616a.355.355 0 0 1-.105.28.386.386 0 0 1-.498 0 .352.352 0 0 1-.105-.28v-1.94a.355.355 0 0 1 .105-.28.386.386 0 0 1 .498 0 .352.352 0 0 1 .105.28v1.94zm4.374.867V23.9h-.51l-.668 1.944h-.01L24.47 23.9h-.503v3.673h.525v-2.235h.01l.513 1.58h.262l.518-1.58h.01v2.235h.524zm2.98-3.416a.727.727 0 0 0-.296-.2 1.168 1.168 0 0 0-.38-.058h-.78v3.673h.523v-1.435h.27a.964.964 0 0 0 .472-.1.76.76 0 0 0 .286-.28.875.875 0 0 0 .12-.32c.02-.14.03-.28.028-.42a2.107 2.107 0 0 0-.05-.524.785.785 0 0 0-.194-.338zm-.27 1.12a.45.45 0 0 1-.048.19.296.296 0 0 1-.135.13.538.538 0 0 1-.247.046h-.24v-1.25h.27a.506.506 0 0 1 .237.047.3.3 0 0 1 .123.136.537.537 0 0 1 .046.205v.245c0 .085.005.174 0 .252h-.005zm2.75-1.378h-.428l-.81 3.673h.524l.154-.79h.714l.154.79h.524l-.83-3.674zm-.482 2.383.258-1.332h.01l.255 1.333h-.523zm3.865-.17h-.01l-.79-2.214h-.503v3.673h.523v-2.21h.01l.8 2.21h.493V23.9h-.523v2.212zm3.2-2.214-.422 1.46h-.01l-.42-1.46h-.555l.72 2.12v1.553h.523V26.02l.72-2.12h-.555zM17.6 28.61h.252v.708h.17v-.708h.252v-.145H17.6v.145zm2.12-.145-.33.853h.182l.07-.194h.34l.073.194h.186l-.338-.853h-.182zm-.026.516.116-.315.116.316h-.232zm2.124.024h.197v.11a.332.332 0 0 1-.202.072c-.034.002-.07-.004-.1-.02s-.06-.035-.08-.062a.352.352 0 0 1-.064-.222c0-.19.08-.285.245-.285.043-.004.086.007.12.032s.062.06.073.103l.17-.033c-.037-.167-.157-.25-.363-.25a.426.426 0 0 0-.298.11.413.413 0 0 0-.122.327.465.465 0 0 0 .11.32.408.408 0 0 0 .323.125.51.51 0 0 0 .362-.136v-.336h-.37v.144zm2.14-.54h-.172v.854h.598v-.145h-.425v-.708zm1.81 0h-.172v.854h.173v-.853zm1.77.57-.348-.57h-.167v.854h.16v-.557l.344.558h.17v-.853h-.157v.57zm1.602-.09h.425v-.146h-.425v-.187h.457v-.144h-.63v.853h.648v-.146h-.475v-.23zm3.88-.142h-.336v-.336h-.17v.853h.17v-.374h.336v.373h.17v-.854h-.17v.336zm1.61.14h.425V28.8h-.426v-.187h.458v-.144h-.63v.853h.646v-.146h-.475v-.23zm2.182 0c.148-.022.224-.1.224-.236a.203.203 0 0 0-.084-.19.48.48 0 0 0-.25-.05h-.362v.854h.17v-.357h.035a.23.23 0 0 1 .107.02.18.18 0 0 1 .06.06l.187.272h.204L37 29.148a.6.6 0 0 0-.19-.205zm-.172-.117h-.127v-.214h.135a.445.445 0 0 1 .174.02.128.128 0 0 1 .03.04.116.116 0 0 1-.005.098.114.114 0 0 1-.032.037.486.486 0 0 1-.174.02zm1.818.118h.425v-.145h-.425v-.187h.46v-.144h-.632v.853h.648v-.146h-.475v-.23z"/></symbol><symbol id="icon-logo2" viewBox="0 0 57 32"><path d="M19.417 26.187c.008 0 .017.002.025.005s.015.007.02.013l.116.11a.955.955 0 0 1-.327.212 1.3 1.3 0 0 1-.463.076 1.213 1.213 0 0 1-.436-.07.942.942 0 0 1-.328-.2.878.878 0 0 1-.212-.31 1.02 1.02 0 0 1-.074-.395.91.91 0 0 1 .305-.705 1.06 1.06 0 0 1 .35-.2c.143-.05.296-.073.45-.072.142-.002.284.02.416.065.115.043.22.104.313.178l-.098.12a.085.085 0 0 1-.025.02.066.066 0 0 1-.04.01.086.086 0 0 1-.04-.014l-.053-.033-.073-.04a.818.818 0 0 0-.228-.07 1.11 1.11 0 0 0-.173-.014.952.952 0 0 0-.324.053.683.683 0 0 0-.417.387.81.81 0 0 0-.06.313.795.795 0 0 0 .06.318.68.68 0 0 0 .4.383.867.867 0 0 0 .3.05c.06 0 .12-.003.178-.01a.69.69 0 0 0 .384-.163.09.09 0 0 1 .055-.02zm3.36-.558a.974.974 0 0 1-.08.392c-.046.114-.12.218-.218.305s-.215.155-.345.2a1.42 1.42 0 0 1-.884 0 1.027 1.027 0 0 1-.34-.2.904.904 0 0 1-.222-.31 1.022 1.022 0 0 1 0-.786.94.94 0 0 1 .22-.31c.098-.083.215-.15.343-.192.285-.096.6-.096.885 0 .13.046.246.114.343.2a.914.914 0 0 1 .298.7zm-.307 0a.84.84 0 0 0-.055-.317.653.653 0 0 0-.402-.385 1.025 1.025 0 0 0-.643 0 .683.683 0 0 0-.246.15.63.63 0 0 0-.157.235.927.927 0 0 0 0 .632.643.643 0 0 0 .403.384c.207.066.435.066.643 0a.698.698 0 0 0 .246-.15.662.662 0 0 0 .155-.235.82.82 0 0 0 .055-.316zm2.597.33.03.07.033-.07a.68.68 0 0 1 .038-.07l.743-1.174c.016-.02.03-.033.043-.037a.207.207 0 0 1 .06-.007h.22v1.91h-.26v-1.464a.726.726 0 0 1 0-.067l-.746 1.19c-.01.018-.025.033-.044.043s-.04.016-.064.016h-.043c-.023 0-.045-.005-.064-.016s-.034-.026-.044-.044l-.77-1.198v1.533h-.252v-1.905h.22a.207.207 0 0 1 .06.006.087.087 0 0 1 .042.037l.76 1.175a.418.418 0 0 1 .037.068zm2.797-.095v.715h-.29v-1.906h.648a1.38 1.38 0 0 1 .362.042.724.724 0 0 1 .256.12.492.492 0 0 1 .145.186.576.576 0 0 1 .05.244.54.54 0 0 1-.212.435.752.752 0 0 1-.257.127 1.25 1.25 0 0 1-.35.044l-.352-.004zm0-.205h.352a.808.808 0 0 0 .225-.03.52.52 0 0 0 .164-.08.358.358 0 0 0 .134-.287c.003-.053-.007-.106-.03-.155s-.056-.094-.1-.13a.624.624 0 0 0-.392-.102h-.352v.786zm3.908.923h-.23a.11.11 0 0 1-.064-.018.123.123 0 0 1-.038-.044l-.198-.46h-.993l-.206.46a.107.107 0 0 1-.1.063h-.23l.87-1.91h.303l.884 1.91zm-1.44-.71h.82l-.345-.776a1.276 1.276 0 0 1-.065-.18l-.034.1a.98.98 0 0 1-.032.082l-.343.775zm2.697-1.19c.016.007.03.02.043.033l1.272 1.44v-1.483h.26v1.91h-.145a.136.136 0 0 1-.06-.012.165.165 0 0 1-.047-.034l-1.27-1.438a.726.726 0 0 1 0 .066v1.42h-.26v-1.91h.153a.15.15 0 0 1 .052.01zm3.718 1.14v.758h-.29v-.757l-.805-1.15h.26a.114.114 0 0 1 .063.016.16.16 0 0 1 .04.042l.502.742a.717.717 0 0 1 .088.17l.038-.083a.745.745 0 0 1 .05-.086l.495-.747a.18.18 0 0 1 .037-.04.098.098 0 0 1 .063-.02h.263l-.806 1.156zM24.923 21.47c.127.014.255.025.384.035 1.962-.763 3.622-2.01 4.772-3.588s1.74-3.415 1.694-5.282l-2.162-1.88c.44 1.99.234 4.044-.594 5.936s-2.245 3.548-4.094 4.78z"/><path d="m24.15 21.383.06.01c1.974-1.228 3.48-2.942 4.322-4.92s.98-4.134.4-6.182l-3.08-2.675c1.246 2.2 1.747 4.66 1.446 7.098s-1.393 4.75-3.147 6.67zm10.446-6.542c-.523 2.053-1.794 3.903-3.624 5.277-.534.404-1.11.763-1.722 1.074 1.49-.38 2.86-1.052 4.003-1.965s2.03-2.042 2.592-3.3l-1.25-1.084z"/><path d="m34.106 14.54-1.778-1.546c-.034 1.762-.61 3.483-1.67 4.986s-2.56 2.73-4.35 3.56h.008c.4 0 .798-.022 1.194-.063 1.673-.593 3.15-1.537 4.303-2.748s1.94-2.65 2.295-4.19zM24.41 6.485 22.286 4.64c-1.897.637-3.528 1.756-4.68 3.212s-1.772 3.18-1.778 4.946c.006 1.952.762 3.846 2.148 5.383s3.322 2.63 5.5 3.102c1.947-2.06 3.086-4.605 3.253-7.266s-.646-5.3-2.322-7.53zm14.598 7.77C39 11.938 37.938 9.72 36.053 8.08s-4.44-2.56-7.105-2.567a11.3 11.3 0 0 0-3.602.582l12.99 11.286a7.647 7.647 0 0 0 .672-3.128z"/></symbol><symbol id="icon-logo3" viewBox="0 0 57 32"><path d="M12.878 11.255h-.002c-1.28 0-2.316.92-2.316 2.058s1.037 2.06 2.316 2.06h.002c1.28 0 2.316-.922 2.316-2.06 0-1.137-1.037-2.058-2.316-2.058zm17.093-.658c-.003-1.58-.71-3.092-1.966-4.208s-2.958-1.746-4.735-1.75c-1.778.003-3.48.63-4.738 1.748s-1.964 2.63-1.968 4.21v8.705S29.97 17.976 29.97 10.6v-.002zM5.868 22.16c.003 1.098.496 2.15 1.37 2.928s2.057 1.215 3.293 1.218c1.236-.003 2.42-.44 3.294-1.218s1.366-1.83 1.37-2.927v-6.056s-9.327.924-9.327 6.056zm4.663 1.085c-.242 0-.478-.064-.678-.183s-.357-.29-.45-.487c-.092-.198-.117-.417-.07-.627s.164-.404.335-.556c.17-.152.388-.255.625-.297s.482-.02.706.062c.223.082.414.22.548.4s.206.388.206.603c0 .143-.03.284-.092.417s-.15.252-.264.353c-.114.1-.248.182-.397.236s-.31.083-.47.083v-.005zm9.426-.598h-.9v.93h-.47v-2.275h1.482v.38h-1.012v.588h.9v.378zm2.253-.156c0 .225-.04.42-.12.59a.893.893 0 0 1-.847.528c-.19 0-.357-.045-.505-.136s-.262-.22-.344-.387a1.344 1.344 0 0 1-.123-.58v-.113c0-.224.04-.42.12-.59a.895.895 0 0 1 .85-.53c.188 0 .357.046.504.137a.888.888 0 0 1 .342.39c.08.17.122.367.122.59v.102zm-.476-.102c0-.238-.043-.42-.128-.544s-.207-.186-.366-.186a.416.416 0 0 0-.364.184c-.085.122-.13.3-.13.538v.11c0 .233.043.413.128.542s.208.192.37.192a.415.415 0 0 0 .362-.184c.084-.124.127-.304.128-.54v-.112zm1.996.592a.237.237 0 0 0-.094-.203 1.203 1.203 0 0 0-.337-.15 2.418 2.418 0 0 1-.387-.156c-.258-.14-.387-.327-.387-.563 0-.123.034-.232.103-.328a.688.688 0 0 1 .297-.228c.13-.054.276-.08.438-.08.163 0 .307.03.434.088a.662.662 0 0 1 .4.614h-.47c0-.104-.032-.185-.097-.242s-.158-.087-.277-.087a.426.426 0 0 0-.267.073.225.225 0 0 0-.096.19c0 .075.037.137.11.187.076.05.186.097.33.14.268.08.462.18.584.3s.183.266.183.443a.55.55 0 0 1-.222.464c-.15.11-.35.167-.602.167a1.18 1.18 0 0 1-.478-.096c-.144-.065-.254-.153-.33-.264s-.113-.24-.113-.388h.47c0 .25.15.377.45.377a.442.442 0 0 0 .26-.068.222.222 0 0 0 .095-.19zm2.5-1.298h-.696v1.895h-.47v-1.895h-.686v-.38h1.853v.38zm1.64.91h-.9v.608h1.055v.377H26.5v-2.275h1.522v.38H26.97v.542h.9v.367zm1.272.152h-.373v.833h-.47v-2.275h.845c.27 0 .476.06.622.18s.22.29.22.508a.697.697 0 0 1-.103.39.69.69 0 0 1-.305.246l.49.93v.022h-.502l-.427-.833zm-.373-.38h.377c.118 0 .21-.03.273-.088a.32.32 0 0 0 .097-.248.343.343 0 0 0-.092-.253c-.06-.06-.154-.092-.28-.092h-.377v.683zm2.84.41v.803h-.47v-2.275h.887c.17 0 .32.03.45.094a.703.703 0 0 1 .405.66.655.655 0 0 1-.23.527c-.152.128-.363.192-.633.192h-.412zm0-.378h.418c.124 0 .218-.03.283-.088.067-.058.1-.142.1-.25 0-.11-.034-.202-.1-.27s-.155-.104-.27-.106h-.43v.714zm2.965.195h-.9v.61h1.056v.377h-1.524v-2.275h1.522v.38h-1.053v.542h.9v.367zm2.175-.908h-.697v1.895h-.47v-1.895h-.687v-.38h1.853v.38zm1.637.91h-.9v.608h1.056v.377h-1.525v-2.275h1.522v.38h-1.053v.542h.9v.367zm1.274.152h-.372v.833h-.47v-2.275h.846c.27 0 .476.06.622.18s.22.29.22.508a.697.697 0 0 1-.103.39.69.69 0 0 1-.305.246l.492.93v.022h-.503l-.427-.833zm-.373-.38h.378c.118 0 .21-.03.273-.088a.32.32 0 0 0 .097-.248.343.343 0 0 0-.092-.253c-.06-.06-.154-.092-.28-.092h-.377v.683zm2.755.616a.237.237 0 0 0-.094-.203 1.203 1.203 0 0 0-.337-.15 2.418 2.418 0 0 1-.385-.156c-.258-.14-.388-.327-.388-.563 0-.123.034-.232.103-.328a.688.688 0 0 1 .298-.228c.13-.054.276-.08.438-.08.163 0 .307.03.434.088a.675.675 0 0 1 .295.248.646.646 0 0 1 .106.366h-.468c0-.104-.033-.185-.098-.242s-.158-.087-.277-.087a.426.426 0 0 0-.267.073.225.225 0 0 0-.095.19c0 .075.037.137.11.187.076.05.186.097.33.14.268.08.462.18.584.3s.182.266.182.443a.548.548 0 0 1-.223.464c-.15.11-.35.167-.603.167a1.18 1.18 0 0 1-.478-.096.773.773 0 0 1-.33-.264.678.678 0 0 1-.113-.388h.47c0 .25.15.377.45.377a.442.442 0 0 0 .26-.068.222.222 0 0 0 .095-.19z"/></symbol><symbol id="icon-smartphone" viewBox="0 0 20 32"><path d="M17 0H3C1.346 0 0 1.346 0 3v26c0 1.654 1.346 3 3 3h14c1.654 0 3-1.346 3-3V3c0-1.654-1.346-3-3-3zM3 2h14a1 1 0 0 1 1 1v21H2V3a1 1 0 0 1 1-1zm14 28H3a1 1 0 0 1-1-1v-3h16v3a1 1 0 0 1-1 1z"/><path d="M4.707 27.478c.39.365.39.956 0 1.32s-1.024.366-1.414 0c-.39-.364-.39-.955 0-1.32s1.024-.365 1.414 0z"/></symbol><symbol id="icon-twitter" viewBox="0 0 32 32"><path d="M32 6.078c-1.19.522-2.458.868-3.78 1.036a6.523 6.523 0 0 0 2.886-3.626 13.11 13.11 0 0 1-4.16 1.588A6.574 6.574 0 0 0 22.154 3c-3.632 0-6.556 2.948-6.556 6.562 0 .52.044 1.02.152 1.496-5.454-.266-10.28-2.88-13.522-6.862a6.605 6.605 0 0 0-.898 3.316 6.57 6.57 0 0 0 2.914 5.452 6.48 6.48 0 0 1-2.964-.808v.072c0 3.188 2.274 5.836 5.256 6.446a6.548 6.548 0 0 1-1.72.216 5.8 5.8 0 0 1-1.242-.112c.85 2.598 3.262 4.508 6.13 4.57a13.182 13.182 0 0 1-8.134 2.798c-.538 0-1.054-.024-1.57-.09A18.47 18.47 0 0 0 10.064 29c12.072 0 18.672-10 18.672-18.668 0-.29-.01-.57-.024-.848A13.087 13.087 0 0 0 32 6.078z"/></symbol><symbol id="icon-astronaut" viewBox="0 0 32 32"><path fill="#2196f3" style="" d="M31.974 4.524a.534.534 0 0 0-.43-.363l-1.91-.277-.855-1.73c-.18-.366-.778-.366-.957 0l-.855 1.73-1.91.278a.535.535 0 0 0-.296.91l1.383 1.35-.326 1.902c-.035.2.047.402.21.522a.53.53 0 0 0 .563.04l1.71-.9 1.708.9a.536.536 0 0 0 .776-.563L30.46 6.42l1.383-1.348a.536.536 0 0 0 .135-.547zM29.51 5.85a.534.534 0 0 0-.152.473l.19 1.114-1-.526a.533.533 0 0 0-.497 0l-1 .527.19-1.114a.534.534 0 0 0-.152-.472l-.81-.788 1.12-.163a.532.532 0 0 0 .4-.293l.5-1.013.5 1.013a.535.535 0 0 0 .403.292l1.12.162-.81.79zm-3.376 14.672h-1.067v1.067h1.067V20.52zm0 2.134h-1.067v1.067h1.067v-1.067zM27.2 21.59h-1.067v1.066H27.2V21.59zm-2.133 0H24v1.066h1.067V21.59zm-2.667 4.8h-1.067v1.066H22.4V26.39zm0 2.132h-1.067v1.067H22.4V28.52zm1.067-1.066H22.4v1.067h1.067v-1.067zm-2.134 0h-1.067v1.067h1.067v-1.067zM16 24.256h-1.067v1.067H16v-1.067zm0 2.133h-1.067v1.066H16V26.39zm1.067-1.068H16v1.067h1.067V25.32zm-2.134 0h-1.067v1.067h1.067V25.32zm-9.066-19.2H4.8V7.19h1.067V6.12zm0 2.133H4.8v1.067h1.067V8.255z"/><path fill="#2196f3" style="" d="M6.933 7.19H5.866v1.066h1.067V7.19zM4.8 7.19H3.733v1.066H4.8V7.19z"/><path fill="#212121" style="" d="M24.715 14.16a1.775 1.775 0 0 0-1.188-.706 1.778 1.778 0 0 0-1.34.352l-1.252.96-1.898 1.417-1.358-.54c2.42-1.087 4.113-3.51 4.113-6.32 0-3.824-3.123-6.934-6.96-6.934S7.87 5.5 7.87 9.32a6.86 6.86 0 0 0 1.12 3.758l-2.763-.024h-.005c-.01 0-.015.004-.023.005a.515.515 0 0 0-.156.032l-.038.013c-.006.003-.013.003-.02.006l-3.232 1.597-1.894.912a.397.397 0 0 0-.063.034A1.78 1.78 0 0 0 .2 17.95c.22.428.594.744 1.055.888a1.776 1.776 0 0 0 1.378-.128l1.388-.738 2.265-1.17 1.357-.007L2.2 22.21l-.002.002-1.34 1.333c-.315.315-.49.732-.49 1.178s.175.863.49 1.18c.326.322.753.484 1.18.484s.854-.162 1.18-.485l1.314-1.31 1.74-1.3.902.898-1.762 1.754H5.41L4.07 27.28c-.315.315-.49.732-.49 1.178s.175.863.49 1.18c.326.322.754.484 1.18.484s.856-.162 1.18-.485l3.483-3.467v-.002l1.01-1-.003-.004c.006-.006.015-.01.022-.015l5.166-5.658 3.47.493a.52.52 0 0 0 .263-.033c.02-.006.034-.015.05-.023.02-.01.04-.015.06-.027l3.212-2.133c.012-.008.018-.02.03-.03s.028-.013.04-.025l1.27-1.19a1.78 1.78 0 0 0 .213-2.363zM2.13 17.77a.714.714 0 0 1-.558.052.717.717 0 0 1-.213-1.26l1.313-.632.45 1.312-.993.528zm3.498-1.828-1.548.8-.44-1.283 2.028-1.002-.04 1.484zm15.1-6.62a5.79 5.79 0 0 1-.6 2.56l-4.18-1.9a1.863 1.863 0 0 0-.79-1.388l1.465-4.86c2.378.756 4.105 2.974 4.105 5.588zm-11.79 0c0-3.235 2.644-5.867 5.894-5.867.253 0 .5.02.745.052L14.145 8.26c-.02 0-.037-.005-.057-.005-1.033 0-1.873.837-1.873 1.867s.84 1.867 1.873 1.867c.694 0 1.294-.384 1.618-.946l3.862 1.755a5.894 5.894 0 0 1-4.737 2.39c-3.25 0-5.893-2.633-5.893-5.868zm5.956.8c0 .44-.362.8-.806.8s-.806-.36-.806-.8.362-.8.806-.8.806.36.806.8zM2.464 25.146a.608.608 0 0 1-.853 0 .592.592 0 0 1 0-.843l.963-.958.85.848-.958.955zM5.68 28.88a.608.608 0 0 1-.856 0 .592.592 0 0 1 0-.843l.963-.96.852.85-.96.954zm3.48-3.47-.002.002-1.765 1.76-.852-.848 1.764-1.755.002-.002c.04-.04.065-.088.09-.135.007-.014.02-.026.026-.04.017-.04.02-.085.026-.13.003-.024.014-.046.014-.072 0-.035-.013-.07-.02-.105-.006-.032-.006-.065-.02-.095a.55.55 0 0 0-.09-.138c-.01-.012-.014-.027-.025-.038l-.002-.002-1.607-1.6c-.017-.017-.04-.024-.058-.038a.507.507 0 0 0-.087-.058.515.515 0 0 0-.093-.033.507.507 0 0 0-.103-.02.5.5 0 0 0-.095.005.53.53 0 0 0-.104.02.477.477 0 0 0-.094.045c-.02.01-.042.015-.06.03L4.23 23.485l-.9-.897 2.398-2.387 4.36 4.29-.927.918zm6.82-7.016c-.016-.002-.03.004-.046.003a.556.556 0 0 0-.3.075.492.492 0 0 0-.083.06c-.012.012-.027.018-.04.03l-4.697 5.146-4.328-4.257 2.833-2.817a.534.534 0 0 0-.38-.91v-.002l-2.218.014.028-1.607 3.104.027a6.947 6.947 0 0 0 4.98 2.1c.438 0 .865-.044 1.28-.122.04.032.08.065.13.085l2.41.96.33 1.644-3.002-.426zm4.04.178-.313-1.558 1.446-1.08.947 1.257-2.08 1.382zm3.754-2.83-.838.784-.93-1.236.83-.637a.735.735 0 0 1 .543-.143.718.718 0 0 1 .48.284.713.713 0 0 1-.086.947z"/><path fill="#212121" style="" d="M13.602 18.544 11.46 16.41a.534.534 0 0 0-.754 0l-2.142 2.134a.537.537 0 0 0 0 .756l2.142 2.133a.536.536 0 0 0 .753 0L13.6 19.3a.535.535 0 0 0 0-.756zm-2.52 1.76L9.697 18.92l1.387-1.38 1.387 1.38-1.387 1.38zM17.165 5.07l-.258 1.037c.07.018 1.738.452 1.738 2.15h1.067c0-2.018-1.665-2.966-2.546-3.186zm2.547 4.252h-1.066v1.067h1.067V9.32z"/></symbol><symbol id="icon-email" viewBox="0 0 32 32"><path d="M26.667 5.333H5.334A2.663 2.663 0 0 0 2.68 8L2.67 24c0 1.467 1.2 2.667 2.667 2.667h21.333c1.467 0 2.667-1.2 2.667-2.667V8c0-1.467-1.2-2.667-2.667-2.667zM26.133 11l-9.427 5.893a1.346 1.346 0 0 1-1.413 0L5.866 11a1.132 1.132 0 1 1 1.2-1.92L16 14.667 24.93 9.08a1.132 1.132 0 1 1 1.2 1.92z"/></symbol><symbol id="icon-phone" viewBox="0 0 32 32"><path d="m24.882 19.773-3.268-.373a2.56 2.56 0 0 0-2.11.733L17.137 22.5a19.357 19.357 0 0 1-8.478-8.478l2.38-2.38a2.56 2.56 0 0 0 .732-2.11L11.4 6.29a2.575 2.575 0 0 0-2.56-2.277H6.612c-1.454 0-2.663 1.21-2.573 2.663.682 10.987 9.47 19.76 20.443 20.443 1.454.09 2.663-1.12 2.663-2.574V22.32a2.55 2.55 0 0 0-2.264-2.547z"/></symbol><symbol id="icon-person" viewBox="0 0 32 32"><path d="M16 16c2.947 0 5.333-2.387 5.333-5.333S18.946 5.334 16 5.334c-2.947 0-5.333 2.387-5.333 5.333S13.054 16 16 16zm0 2.667c-3.56 0-10.667 1.787-10.667 5.333v1.333c0 .733.6 1.333 1.333 1.333h18.667c.733 0 1.333-.6 1.333-1.333V24c0-3.547-7.107-5.333-10.667-5.333z"/></symbol><symbol id="icon-send" viewBox="0 0 32 32"><path d="M32 0 0 18l10.227 3.788L26 7 14.002 23.186l.01.004-.012-.004V32l5.735-6.69L27 28l5-28z"/></symbol><symbol id="check-icon-off" viewBox="0 0 34 32"><path d="M30.34 3.556v24.89H3.794V3.555H30.34zm0-3.556H3.794C1.707 0 0 1.6 0 3.556v24.89C0 30.4 1.707 32 3.793 32H30.34c2.087 0 3.794-1.6 3.794-3.555V3.555C34.134 1.6 32.427 0 30.34 0z"/></symbol><symbol id="check-icon-on" viewBox="0 0 42 32"><path stroke-width=".64" d="m6.263 15.205-.22-.21-3.307 3.132 11.65 11.114L38.865 5.89 35.58 2.756 14.386 22.953l-8.124-7.75z"/></symbol><symbol id="icon-phone" viewBox="0 0 32 32"><path d="M22 20c-2 2-2 4-4 4s-4-2-6-4-4-4-4-6 2-2 4-4-4-8-6-8-6 6-6 6c0 4 4.11 12.11 8 16s12 8 16 8c0 0 6-4 6-6s-6-8-8-6z"/></symbol><symbol id="icon-telegram" viewBox="0 0 32 32"><path d="M16 0C7.162 0 0 7.162 0 16s7.162 16 16 16 16-7.163 16-16S24.837 0 16 0zm7.863 10.97-2.625 12.368c-.18.88-.712 1.087-1.45.68l-4-2.955-1.92 1.87c-.224.218-.4.4-.8.4-.518 0-.43-.195-.605-.69L11.1 18.17l-3.956-1.232c-.856-.262-.862-.85.194-1.27L22.75 9.72c.7-.318 1.38.17 1.113 1.25z"/></symbol><symbol id="icon-github" viewBox="0 0 32 32"><path d="M16 0.395c-8.836 0-16 7.163-16 16 0 7.069 4.585 13.067 10.942 15.182 0.8 0.148 1.094-0.347 1.094-0.77 0-0.381-0.015-1.642-0.022-2.979-4.452 0.968-5.391-1.888-5.391-1.888-0.728-1.849-1.776-2.341-1.776-2.341-1.452-0.993 0.11-0.973 0.11-0.973 1.606 0.113 2.452 1.649 2.452 1.649 1.427 2.446 3.743 1.739 4.656 1.33 0.143-1.034 0.558-1.74 1.016-2.14-3.554-0.404-7.29-1.777-7.29-7.907 0-1.747 0.625-3.174 1.649-4.295-0.166-0.403-0.714-2.030 0.155-4.234 0 0 1.344-0.43 4.401 1.64 1.276-0.355 2.645-0.532 4.005-0.539 1.359 0.006 2.729 0.184 4.008 0.539 3.054-2.070 4.395-1.64 4.395-1.64 0.871 2.204 0.323 3.831 0.157 4.234 1.026 1.12 1.647 2.548 1.647 4.295 0 6.145-3.743 7.498-7.306 7.895 0.574 0.497 1.085 1.47 1.085 2.963 0 2.141-0.019 3.864-0.019 4.391 0 0.426 0.288 0.925 1.099 0.768 6.354-2.118 10.933-8.113 10.933-15.18 0-8.837-7.164-16-16-16z"></path></symbol></defs></svg>